{"title":"The.Whip.And.The.Body.1963.DVD.x264.AC3.[FrOnkY]","uid":9740060,"size":821928523,"categoryP":"video","categoryS":"movies","magnet":"?xt=urn:btih:608679a4370f790ad8d1f6d6dcfba8b2cf26b983&amp;dn=The.Whip.And.The.Body.1963.DVD.x264.AC3.%5BFrOnkY%5D&amp;tr=udp%3A%2F%2Ftracker.openbittorrent.com%3A80&amp;tr=udp%3A%2F%2Fopen.demonii.com%3A1337&amp;tr=udp%3A%2F%2Ftracker.coppersurfer.tk%3A6969&amp;tr=udp%3A%2F%2Fexodus.desync.com%3A6969","seeders":0,"leechers":1,"uploader":"HDmEntEs","files":-1,"time":1394498271,"description":"The most deliriously romantic horror picture ever made! \n\n\nLa.Frusta.E.Il.Corpo.aka.The.Whip.And.The.Body.1963.DVD.x264.AC3.[FrOnkY].mkv\n\nFormat                                   : Matroska\nFormat version                           : Version 2\nFile size                                : 784 MiB\nDuration                                 : 1h 26mn\nOverall bit rate                         : 1 260 Kbps\nWriting application                      : mkvmerge v5.6.0 ('Kenya Kane') built on May 27 2012 16:44:04\nWriting library                          : libebml v1.2.3 + libmatroska v1.3.0\nAttachment                               : Yes\n\nVideo\nID                                       : 1\nFormat                                   : AVC\nFormat/Info                              : Advanced Video Codec\nFormat profile                           : &lt;a class=&quot;__cf_email__&quot; href=&quot;/cdn-cgi/l/email-protection&quot; data-cfemail=&quot;0941606e6149453d2738&quot;&gt;[email&amp;#160;protected]&lt;/a&gt;&lt;script cf-hash='f9e31' type=&quot;text/javascript&quot;&gt;\n/* &lt;![CDATA[ */!function(){try{var t=&quot;currentScript&quot;in document?document.currentScript:function(){for(var t=document.getElementsByTagName(&quot;script&quot;),e=t.length;e--;)if(t[e].getAttribute(&quot;cf-hash&quot;))return t[e]}();if(t&amp;&amp;t.previousSibling){var e,r,n,i,c=t.previousSibling,a=c.getAttribute(&quot;data-cfemail&quot;);if(a){for(e=&quot;&quot;,r=parseInt(a.substr(0,2),16),n=2;a.length-n;n+=2)i=parseInt(a.substr(n,2),16)^r,e+=String.fromCharCode(i);e=document.createTextNode(e),c.parentNode.replaceChild(e,c)}}}catch(u){}}();/* ]]&gt; */&lt;/script&gt;\nFormat settings, CABAC                   : Yes\nFormat settings, ReFrames                : 16 frames\nCodec ID                                 : V_MPEG4/ISO/AVC\nDuration                                 : 1h 26mn\nBit rate                                 : 1 043 Kbps\nWidth                                    : 720 pixels\nHeight                                   : 532 pixels\nDisplay aspect ratio                     : 1.925\nFrame rate mode                          : Constant\nFrame rate                               : 23.976 fps\nColor space                              : YUV\nChroma subsampling                       : 4:2:0\nBit depth                                : 8 bits\nScan type                                : Progressive\nBits/(Pixel*Frame)                       : 0.114\nStream size                              : 649 MiB (83%)\nWriting library                          : x264 core 125 r2200 999b753\nLanguage                                 : Italian\nDefault                                  : Yes\nForced                                   : No\n\nAudio\nID                                       : 2\nFormat                                   : AC-3\nFormat/Info                              : Audio Coding 3\nMode extension                           : CM (complete main)\nFormat settings, Endianness              : Big\nCodec ID                                 : A_AC3\nDuration                                 : 1h 26mn\nBit rate mode                            : Constant\nBit rate                                 : 192 Kbps\nChannel(s)                               : 1 channel\nChannel positions                        : Front: C\nSampling rate                            : 48.0 KHz\nBit depth                                : 16 bits\nStream size                              : 119 MiB (15%)\nLanguage                                 : English\nDefault                                  : Yes\nForced                                   : No\n\nText #1\nID                                       : 3\nFormat                                   : UTF-8\nCodec ID                                 : S_TEXT/UTF8\nCodec ID/Info                            : UTF-8 Plain Text\nLanguage                                 : Spanish\nDefault                                  : Yes\nForced                                   : No\n\nText #2\nID                                       : 4\nFormat                                   : UTF-8\nCodec ID                                 : S_TEXT/UTF8\nCodec ID/Info                            : UTF-8 Plain Text\nLanguage                                 : English\nDefault                                  : No\nForced                                   : No\n\nMenu\n00:00:00.000                             : en:Chapter 01\n00:07:39.960                             : en:Chapter 02\n00:15:45.445                             : en:Chapter 03\n00:26:26.086                             : en:Chapter 04\n00:35:52.152                             : en:Chapter 05\n00:45:29.730                             : en:Chapter 06\n00:55:13.814                             : en:Chapter 07\n01:03:04.910                             : en:Chapter 08\n01:13:03.509                             : en:Chapter 09\n01:21:39.525                             : en:Chapter 10\n\n\nSCREENS\n &lt;a href=&quot;\nhttp://box.jisko.net/i/c20167a2.png&quot; rel=&quot;nofollow&quot; target=&quot;_NEW&quot;&gt;\nhttp://box.jisko.net/i/c20167a2.png&lt;/a&gt;\n &lt;a href=&quot;\nhttp://box.jisko.net/i/948a07fd.png&quot; rel=&quot;nofollow&quot; target=&quot;_NEW&quot;&gt;\nhttp://box.jisko.net/i/948a07fd.png&lt;/a&gt;\n\nBluRay - DVD\n &lt;a href=&quot;\nhttp://box.jisko.net/i/8a73a2e6.jpg&quot; rel=&quot;nofollow&quot; target=&quot;_NEW&quot;&gt;\nhttp://box.jisko.net/i/8a73a2e6.jpg&lt;/a&gt;\n &lt;a href=&quot;\nhttp://box.jisko.net/i/c0dcb4c2.png&quot; rel=&quot;nofollow&quot; target=&quot;_NEW&quot;&gt;\nhttp://box.jisko.net/i/c0dcb4c2.png&lt;/a&gt;","torrent":{"xt":"urn:btih:608679a4370f790ad8d1f6d6dcfba8b2cf26b983","amp;dn":"The.Whip.And.The.Body.1963.DVD.x264.AC3.%5BFrOnkY%5D","amp;tr":["udp%3A%2F%2Ftracker.openbittorrent.com%3A80","udp%3A%2F%2Fopen.demonii.com%3A1337","udp%3A%2F%2Ftracker.coppersurfer.tk%3A6969","udp%3A%2F%2Fexodus.desync.com%3A6969"],"infoHash":"608679a4370f790ad8d1f6d6dcfba8b2cf26b983","infoHashBuffer":{"type":"Buffer","data":[96,134,121,164,55,15,121,10,216,209,246,214,220,251,168,178,207,38,185,131]},"announce":[],"urlList":[]}}